<mxfile host="Electron" modified="2023-07-03T05:09:57.623Z" agent="Mozilla/5.0 (Windows NT 10.0; Win64; x64) AppleWebKit/537.36 (KHTML, like Gecko) draw.io/21.5.1 Chrome/112.0.5615.204 Electron/24.6.0 Safari/537.36" etag="hgHkDM63Bwv9KgETBrBa" version="21.5.1" type="device">
  <diagram name="Page-1" id="jDb_ATB1rMzeTbuRhSlZ">
    <mxGraphModel dx="2333" dy="1007" grid="1" gridSize="10" guides="1" tooltips="1" connect="1" arrows="1" fold="1" page="1" pageScale="1" pageWidth="850" pageHeight="1100" math="0" shadow="0">
      <root>
        <mxCell id="0" />
        <mxCell id="1" parent="0" />
        <mxCell id="UBvdYF4XoFlzJ0grdJ4q-20" value="" style="rounded=0;whiteSpace=wrap;html=1;" vertex="1" parent="1">
          <mxGeometry x="780" y="320" width="590" height="250" as="geometry" />
        </mxCell>
        <mxCell id="UBvdYF4XoFlzJ0grdJ4q-1" value="" style="shape=image;aspect=fixed;image=data:image/png,iVBORw0KGgoAAAANSUhEUgAAAQsAAABGCAYAAAGs44HCAAAAGXRFWHRTb2Z0d2FyZQBBZG9iZSBJbWFnZVJlYWR5ccllPAAAC4pJREFUeNpiYBgF2EECEP8fSAcwIbEZkRxjQIRemFoHajroPxQrIFnwH42N7gBs8uSoAwMWpNBgIBA9oOgTIOAhRmqFSAASG5dP8IlhM5MUPaMADgACaBRgS1ACVDKrgVwH4MuuyAWaAha1DtQKBfQsJUAgm/4nQ/4+1FyChRfMVx+I9MACEjy7EJe5IEcIIrmOESkKBPBEHTI7Aa0+YsDCxwb2A7HjaHZEBgABNApGAf6myX9aNV1wZHRGMvQx0jowmLB4HhmDwHs8TSd0vB6H3HssJV4CDnNh8uexRBI2deh1xH8cmOQa1gGP4/7jqbTQ+Q1E6EF3IK4KlYFIO7HZz0BOW/c/lhod2ZL9BCxH5u8n0sHIbAU8XSFk/nqkDoMCmYGB7J9RMApGAWkAIAB7VlDEMAgESRREQi3UAXUQCZFQCXVQCUiIhEwVIAUJ108fzM7BHQxN+7h9JQECs7m7sIvBYDD0IsIu8l/w6PVnRlgq33Imfed7T3NKZxBPk9P50xosDSTV2qYzRBoyvyqjJmTPExNNki4hIRpJaDtgbT6TALjOrkgvTX4X9viJ0QKcZsE02aFPYMZvCl2BZHDrDL1RfjCE7K5++uGYe66/d/UTE4L53SAy1LVqhoE3yM/4SZ9rQ95iDWrB69e/LgLGJdNFioy8Typ8oUtm4GitgdJ1S2So6gcpCNCmSV5Un0zRpYKDtinIiEyBHE6GwWAwGBrxFoB9KzCqEIah0QlwA9yAEeoG3w1wAnUCcQLOCXCD7wawAWzACPwR/NzVMz8mJeWDX7y8u95xtE2TkKZtUgwGg8FgMBjWAI41jEfqfqL9eC3tZgNyjbFXfDGx+YUQCKfTzYNedilQXQY/Qxn5H5fHwboZD4oalX8FrEQXEF5SNhekl25RURrcbTFOwUVgjFqgL8XtdoE2w4R+KM8A07HBWqnzmvTJQU7SlEq9nW3xkqL2EP4BBrftvZA56IOpg//o+4g+Oz9OD3z2qmKMsxBolZ5ez8iiNbY1DAP37QPfpoX1c8LBWRmzlDjgU44a76QVMA14MacYu1UY+hPzrlTyvIRhhL7NJZfOE7SCMJLxVAqFwQwl01k91zA0+fV6IZ43ZxjXDJOV0PaOOaFgJl7h9GbHUtnSmjlJfZXbSFr4Zx/uXhJdMh8W3AzTU9MmkCiXEDrb2og+cz1GPmMMF6gflLSyM71cGsH3Wh5j9sb0Sli7X8g+YowDvB3LR2Bv8uif34/lWZgpDXnXTMwuXJ/7MTLPxz2a5YnQxxF6BZGzREZ+8DIWETxp6hOvz5HPznvWA+nT+XchWVL4/lGU1klxG0e8ZWehO4PBYDAYDJfEpwDsnYtt4zAMQNXgBmg28G3gbOBMUHeCJhOcN4g7wV0nsDtBboP0NugG8QbJCIUAGlBYUqJi2ZcYfICBfPyhGYqkZEpRFEVRFEVRFEVRFEW5VezDFlwnYWsaNqoaFqub2vyH5TqmQPJ4vLyTeymcbey6Bt9j8NkbRKgI+JaYUt7ZGUW/BLL7fN4+i7frXHTw3tYhVEgJs5oPMZBZ1i1UAksvI1rDtS0zj9i3SOQpcvO9OCc2B5sltfAH5xSdGfl8C8kcCG4dfV95Xc64ck5m38rAVUDmHL3nwodPp7XwmNj1aZIY6cIJE64SKNxi2g+npRwDLYkztMzwBcQnwiAfAzlRFpFv+Pb97ZGrv9ZUeZGvcUr0drVRtIRrdlt65TkeG4St11wT59wwRmFg31cmrBni+n/gGvgYW7n9Tnzen78jDN5+9kwcs2GMcOokuzP83Nkz6IIK9cn62pKeRxMRu6lphoeAu6Oqkt2wgUv2JXNPisD5uesfGZlPwt7H0PBRC2STHDd44Opo4krspXlKLey+xZSqb4TxtiA8IHcPe2KfkMxj5hScbsoBehOFD9cd/XTyhr48naJhwk2/7RK7UcpgmysGtEK83Unn4DzmyReB1r4EA1kzOcLejD9dvwCXnTExV7nkXwqjCE3ZN5DstIGk5sN8Xyw6BQfUQpbONWKMokvkTWbPAo3I+bp9ZUCBU/w32hK5zpgBr1ZgALuJ9P7r1o3imUhaStR1PCKDeQ2ctxlJ3hy9lgzWZB4PlHvGH7YJ5T6hZHaKkVBJYk3yA9xqh5QX+heJOmKwJSXXDBw1sK3B05yE52sTJ8p387CsTzRtr+OvMOt9ECjujAZdhrjllee7NaF8wwzq9HKtIu9xSKiTyn1TUDdvRxCfzOWfxraeLmoGLbEAQ9iC56FmR/tmWuM4j2dO7yGsfULXsSWO6ZyE8tFcjoa2KNmsILZnjixbIiENyRz63vbUXuD1O8ghmTnu080n+i0oHUy9qqCiKIqiKIqiKIqiKIqijM+XAO2d3XHaQBDH107eI1cQ/JY3KxVYrsC4AssVBCoAKoBUAK7AcQXgCiAVoA4gb3lL5sZ7w0Wj2/uQAEH+vxnNJIN0J+3trXbXp1sAAAAAAAAAAAAAAAAAAAAAAAD0IfI69ZHBF3r/IOE3xAjA/82Q/AvBlrc5UNcmECHwRNrtELSUJNJASEcOsTZCRqe9azaMxYlj7oiVs6Hw8QjUN9GFZx/qe/U1RA3AeZA6worUsw3JK5lDzPAswOmia4JIez4/kF/dC3XOFXsRHYuyp4621O+PxrlVKI9mQe97Ss4c95STfY9Ofa36/RvLoHyuSuCqraGeKWy3mIT7viV7BSO9m49+jsIij8T4tyS38lhsBZnck3uf7xXtdufZNiBn9RyDkpyVTO+E6xVDx/+r+pIMrs2wlsfAV3cG3Gb5XKU3r5Z7sumc3jrsO7V4d6Kh8NZ62XPfLo/E51haJuRc8HJyikveJo6Qq8kczzyyjaxiMte9r2lEzmHOk2Hj8DZDchZ1PNdhgMya1J1xpH4s22gsOgGTRRmPHoXtixszeDFHJyBx1mQ/nYbbHzdkLNI9PHs3MEH5x2OCn5KxOPThm0dsTUwccmhjktToTxr4nnDdMHDAbR6Jy9uZBvSTCaHKJmCShOYsXOM5FcbIZcR7kRNrw+eOuY/8hI1FHulZVsndNVbDNuUsdPx4wUIY17BmXT7GRhzWt8RuI884tRwzNsFI6GfFuZq54ImZvFF1XY4FyTXDtnt8a0iT59ohRyWXCdlLg4z5uXxruH6l86r3anueJx5TW52+Cc+FKj25E8bsc9uMhZnomQUmHV3JPr35vqmkVRMp4X6Ust7QbkvqfUwol7Ve1GxL1869N54hPdC4SkUlJ54Gd8sGdSC8FHwMwB2dX2Fo6Xl+Cb+91kgTtNJYVAnG9ReMjA2KazKs6d96Awm/pfIzUKCuw7U/JElDCrsQjMVtQBvgDPhoxEy2t4vrraCNycRQ1LWgsBkrUE7uelQFt/3TcHu31L6VfWsP67/gUKUwZDanw6+RyAImcOLwPMBheGuTsZg3GG/qtQm5R2hiMxDXDmVvE1PBUDyQXwmvpvkheASP5J8wG+zBpT6GN6W5gd2J59KIY20sA8OEqXB+QbtSZDaeayjwMeg4Jq1k9PZl+JRxnwn3u3ZMroTHPRW8pFnL8gWpQ0+n5F6Idiqk/IKvOsb79iz6tFt1aBP0tEJhOuSffDELSK4cxkBlf0e0q7vXpV2StW0UjvDkyXD7dbK41/A9vHAfKlz7xAZXl+vNLQZjUwojt7TLP7nCqWMW4XwWjJjWUx0+h+jnKZG0YS6krOBNLyypUtic4hep2O6xHE7V/ZrR92/6sTKTrksrJnjMCs4mVsi6viCuK+fQ68cUv9K3iXUWEkOK+4YnI/91Fhkd4RusywoXT+ULLvjtsYhsV1dPvuK2qlzWGf828mxTt3cluPcZHSf5eR2Q2yk4l3FBcqnuZUlJCr5mQmHJxZUht5jQYWHoxLFCjzJ9fp6Jpy72+f77yDwAAAAAAAAAAAAAAAAAAAAAAAAAAAAAAAAAgNPhL6kOO+SuBZ82AAAAAElFTkSuQmCC;" vertex="1" parent="1">
          <mxGeometry x="-210" y="80" width="267" height="70" as="geometry" />
        </mxCell>
        <object placeholders="1" c4Name="Appointments" c4Type="WebAPI" c4Technology=".NET" c4Description="Description of container role/responsibility." label="&lt;font style=&quot;font-size: 16px&quot;&gt;&lt;b&gt;%c4Name%&lt;/b&gt;&lt;/font&gt;&lt;div&gt;[%c4Type%: %c4Technology%]&lt;/div&gt;&lt;br&gt;&lt;div&gt;&lt;font style=&quot;font-size: 11px&quot;&gt;&lt;font color=&quot;#E6E6E6&quot;&gt;%c4Description%&lt;/font&gt;&lt;/div&gt;" id="UBvdYF4XoFlzJ0grdJ4q-2">
          <mxCell style="rounded=1;whiteSpace=wrap;html=1;fontSize=11;labelBackgroundColor=none;fillColor=#23A2D9;fontColor=#ffffff;align=center;arcSize=10;strokeColor=#0E7DAD;metaEdit=1;resizable=0;points=[[0.25,0,0],[0.5,0,0],[0.75,0,0],[1,0.25,0],[1,0.5,0],[1,0.75,0],[0.75,1,0],[0.5,1,0],[0.25,1,0],[0,0.75,0],[0,0.5,0],[0,0.25,0]];" vertex="1" parent="1">
            <mxGeometry x="20" y="310" width="240" height="120" as="geometry" />
          </mxCell>
        </object>
        <object placeholders="1" c4Name="Component name" c4Type="Component" c4Technology="e.g. Spring Service" c4Description="Description of component role/responsibility." label="&lt;font style=&quot;font-size: 16px&quot;&gt;&lt;b&gt;%c4Name%&lt;/b&gt;&lt;/font&gt;&lt;div&gt;[%c4Type%: %c4Technology%]&lt;/div&gt;&lt;br&gt;&lt;div&gt;&lt;font style=&quot;font-size: 11px&quot;&gt;%c4Description%&lt;/font&gt;&lt;/div&gt;" id="UBvdYF4XoFlzJ0grdJ4q-3">
          <mxCell style="rounded=1;whiteSpace=wrap;html=1;labelBackgroundColor=none;fillColor=#63BEF2;fontColor=#ffffff;align=center;arcSize=6;strokeColor=#2086C9;metaEdit=1;resizable=0;points=[[0.25,0,0],[0.5,0,0],[0.75,0,0],[1,0.25,0],[1,0.5,0],[1,0.75,0],[0.75,1,0],[0.5,1,0],[0.25,1,0],[0,0.75,0],[0,0.5,0],[0,0.25,0]];" vertex="1" parent="1">
            <mxGeometry x="10" y="530" width="240" height="120" as="geometry" />
          </mxCell>
        </object>
        <mxCell id="UBvdYF4XoFlzJ0grdJ4q-4" value="Appointment" style="swimlane;fontStyle=0;childLayout=stackLayout;horizontal=1;startSize=30;horizontalStack=0;resizeParent=1;resizeParentMax=0;resizeLast=0;collapsible=1;marginBottom=0;whiteSpace=wrap;html=1;" vertex="1" parent="1">
          <mxGeometry x="570" y="440" width="140" height="300" as="geometry" />
        </mxCell>
        <mxCell id="UBvdYF4XoFlzJ0grdJ4q-18" value="AppointmentID" style="text;strokeColor=none;fillColor=none;align=left;verticalAlign=middle;spacingLeft=4;spacingRight=4;overflow=hidden;points=[[0,0.5],[1,0.5]];portConstraint=eastwest;rotatable=0;whiteSpace=wrap;html=1;" vertex="1" parent="UBvdYF4XoFlzJ0grdJ4q-4">
          <mxGeometry y="30" width="140" height="30" as="geometry" />
        </mxCell>
        <mxCell id="UBvdYF4XoFlzJ0grdJ4q-5" value="CreatedDateUTC" style="text;strokeColor=none;fillColor=none;align=left;verticalAlign=middle;spacingLeft=4;spacingRight=4;overflow=hidden;points=[[0,0.5],[1,0.5]];portConstraint=eastwest;rotatable=0;whiteSpace=wrap;html=1;" vertex="1" parent="UBvdYF4XoFlzJ0grdJ4q-4">
          <mxGeometry y="60" width="140" height="30" as="geometry" />
        </mxCell>
        <mxCell id="UBvdYF4XoFlzJ0grdJ4q-6" value="DueDateUTC" style="text;strokeColor=none;fillColor=none;align=left;verticalAlign=middle;spacingLeft=4;spacingRight=4;overflow=hidden;points=[[0,0.5],[1,0.5]];portConstraint=eastwest;rotatable=0;whiteSpace=wrap;html=1;" vertex="1" parent="UBvdYF4XoFlzJ0grdJ4q-4">
          <mxGeometry y="90" width="140" height="30" as="geometry" />
        </mxCell>
        <mxCell id="UBvdYF4XoFlzJ0grdJ4q-7" value="Timespan" style="text;strokeColor=none;fillColor=none;align=left;verticalAlign=middle;spacingLeft=4;spacingRight=4;overflow=hidden;points=[[0,0.5],[1,0.5]];portConstraint=eastwest;rotatable=0;whiteSpace=wrap;html=1;" vertex="1" parent="UBvdYF4XoFlzJ0grdJ4q-4">
          <mxGeometry y="120" width="140" height="30" as="geometry" />
        </mxCell>
        <mxCell id="UBvdYF4XoFlzJ0grdJ4q-10" value="Message" style="text;strokeColor=none;fillColor=none;align=left;verticalAlign=middle;spacingLeft=4;spacingRight=4;overflow=hidden;points=[[0,0.5],[1,0.5]];portConstraint=eastwest;rotatable=0;whiteSpace=wrap;html=1;" vertex="1" parent="UBvdYF4XoFlzJ0grdJ4q-4">
          <mxGeometry y="150" width="140" height="30" as="geometry" />
        </mxCell>
        <mxCell id="UBvdYF4XoFlzJ0grdJ4q-11" value="ConsultancyID" style="text;strokeColor=none;fillColor=none;align=left;verticalAlign=middle;spacingLeft=4;spacingRight=4;overflow=hidden;points=[[0,0.5],[1,0.5]];portConstraint=eastwest;rotatable=0;whiteSpace=wrap;html=1;" vertex="1" parent="UBvdYF4XoFlzJ0grdJ4q-4">
          <mxGeometry y="180" width="140" height="30" as="geometry" />
        </mxCell>
        <mxCell id="UBvdYF4XoFlzJ0grdJ4q-13" value="Address" style="text;strokeColor=none;fillColor=none;align=left;verticalAlign=middle;spacingLeft=4;spacingRight=4;overflow=hidden;points=[[0,0.5],[1,0.5]];portConstraint=eastwest;rotatable=0;whiteSpace=wrap;html=1;" vertex="1" parent="UBvdYF4XoFlzJ0grdJ4q-4">
          <mxGeometry y="210" width="140" height="30" as="geometry" />
        </mxCell>
        <mxCell id="UBvdYF4XoFlzJ0grdJ4q-12" value="ConsultantID" style="text;strokeColor=none;fillColor=none;align=left;verticalAlign=middle;spacingLeft=4;spacingRight=4;overflow=hidden;points=[[0,0.5],[1,0.5]];portConstraint=eastwest;rotatable=0;whiteSpace=wrap;html=1;" vertex="1" parent="UBvdYF4XoFlzJ0grdJ4q-4">
          <mxGeometry y="240" width="140" height="30" as="geometry" />
        </mxCell>
        <mxCell id="UBvdYF4XoFlzJ0grdJ4q-14" value="ClientID" style="text;strokeColor=none;fillColor=none;align=left;verticalAlign=middle;spacingLeft=4;spacingRight=4;overflow=hidden;points=[[0,0.5],[1,0.5]];portConstraint=eastwest;rotatable=0;whiteSpace=wrap;html=1;" vertex="1" parent="UBvdYF4XoFlzJ0grdJ4q-4">
          <mxGeometry y="270" width="140" height="30" as="geometry" />
        </mxCell>
        <mxCell id="UBvdYF4XoFlzJ0grdJ4q-15" value="" style="shape=cylinder3;whiteSpace=wrap;html=1;boundedLbl=1;backgroundOutline=1;size=15;" vertex="1" parent="1">
          <mxGeometry x="860" y="430" width="180" height="80" as="geometry" />
        </mxCell>
        <mxCell id="UBvdYF4XoFlzJ0grdJ4q-16" value="PartitionID:&amp;nbsp; Year_Month" style="text;html=1;strokeColor=none;fillColor=none;align=center;verticalAlign=middle;whiteSpace=wrap;rounded=0;" vertex="1" parent="1">
          <mxGeometry x="920" y="390" width="60" height="30" as="geometry" />
        </mxCell>
        <mxCell id="UBvdYF4XoFlzJ0grdJ4q-17" value="RowID: ClientID_Day_AppointmentID" style="text;html=1;strokeColor=none;fillColor=none;align=center;verticalAlign=middle;whiteSpace=wrap;rounded=0;" vertex="1" parent="1">
          <mxGeometry x="920" y="470" width="60" height="30" as="geometry" />
        </mxCell>
        <mxCell id="UBvdYF4XoFlzJ0grdJ4q-21" value="ConsultancyID: 1" style="text;html=1;strokeColor=none;fillColor=none;align=center;verticalAlign=middle;whiteSpace=wrap;rounded=0;" vertex="1" parent="1">
          <mxGeometry x="800" y="330" width="130" height="30" as="geometry" />
        </mxCell>
      </root>
    </mxGraphModel>
  </diagram>
</mxfile>
